# xmcd
#
# Track frame offsets:
#	150
#	15790
#	27095
#	39580
#	51913
#	63575
#	74486
#	86777
#	99083
#	108188
#	122026
#	132163
#	142753
#	160526
#	173061
#	184973
#	196178
#	213338
#	224882
#	233652
#
# Disc length: 3278
#
# Revision: 3
# Processed by: cddbd v1.5.1PL0 Copyright (c) Steve Scherf et al.
# Submitted via: EasyCDDAExtractor 7.1.0.1
# Normalized: r2:DSETVAR1
#
DISCID=0f0ccc14
DTITLE=Various Artist - Country Music Classics [CD2]
DYEAR=1900
DGENRE=Country
TTITLE0=Cal Smith - Country Bumpkin
TTITLE1=Don Gibson - Sea Of Heartbreak
TTITLE2=Kenny Rogers - Reuben James
TTITLE3=Sandy Posey - Single Girl
TTITLE4=Donna Fargo - The Happiest Girl In The Whole USA
TTITLE5=Hank Locklin - Send Me The Pillow You Dream On
TTITLE6=Herle Haggard - Okie From Muskogee
TTITLE7=Jack Blanchard - Tennessee Bird Walk
TTITLE8=Roger Miller - Chug A Lug
TTITLE9=George Jones - A Good Year For The Roses
TTITLE10=Jim Reeves - He`ll Have To Go
TTITLE11=Patsy Cline - Lovesick Blues
TTITLE12=Johnny Lee - Lookin For Love
TTITLE13=Wanda Jackson - Crazy
TTITLE14=Skeeter Davis - The End Of The World
TTITLE15=Conway twitty - It`s Only Make Belive
TTITLE16=Ray Price - For The Good Times
TTITLE17=Sammi Smith - Help Me Make It Through The Night
TTITLE18=Ferlin Husky - Wings Of A Dove
TTITLE19=Susan Raye - LA International Airport
EXTD=
EXTT0=
EXTT1=
EXTT2=
EXTT3=
EXTT4=
EXTT5=
EXTT6=
EXTT7=
EXTT8=
EXTT9=
EXTT10=
EXTT11=
EXTT12=
EXTT13=
EXTT14=
EXTT15=
EXTT16=
EXTT17=
EXTT18=
EXTT19=
PLAYORDER=
